<svg width="30" height="30" viewBox="0 0 30 30" fill="none" xmlns="http://www.w3.org/2000/svg">
<g id="door-open">
<path id="door-open_2" d="M15.2125 3.79993L7.71248 5.46241C6.86248 5.64991 6.25 6.4124 6.25 7.2874V22.7124C6.25 23.5874 6.86248 24.3499 7.71248 24.5374L15.2125 26.1999C16.3875 26.4624 17.5 25.5749 17.5 24.3749V5.62492C17.5 4.42492 16.3875 3.53743 15.2125 3.79993ZM13.15 16.2499C12.4625 16.2499 11.9 15.6874 11.9 14.9999C11.9 14.3124 12.45 13.7499 13.1375 13.7499H13.15C13.8375 13.7499 14.4 14.3124 14.4 14.9999C14.4 15.6874 13.8375 16.2499 13.15 16.2499ZM20 23.3749V6.62491C20 6.41741 20.1675 6.24992 20.375 6.24992H21.875C22.91 6.24992 23.75 7.08992 23.75 8.12492V21.8749C23.75 22.9099 22.91 23.7499 21.875 23.7499H20.375C20.1675 23.7499 20 23.5824 20 23.3749Z" fill="white"/>
</g>
</svg>
