<svg width="30" height="30" viewBox="0 0 30 30" fill="none" xmlns="http://www.w3.org/2000/svg">
<g id="trophy">
<path id="trophy_2" d="M25 5.3125H22.4687C22.3187 4.42625 21.5537 3.75 20.625 3.75H9.375C8.44625 3.75 7.68128 4.42625 7.53128 5.3125H5C3.79375 5.3125 2.8125 6.29375 2.8125 7.5V9.56253C2.8125 13.0975 5.80872 14.6875 7.93747 14.6875H8.34C9.45 16.8337 11.565 18.3725 14.0637 18.685V22.5713C12.1912 22.8625 11.2512 24.0863 11.2512 26.2488H18.7512C18.7512 24.085 17.8112 22.8625 15.9387 22.5713V18.685C18.4375 18.3725 20.5512 16.8337 21.6624 14.6875H22.065C24.1925 14.6875 27.1899 13.0975 27.1899 9.56253V7.5C27.1874 6.29375 26.2062 5.3125 25 5.3125ZM4.6875 9.56253V7.5C4.6875 7.3275 4.8275 7.1875 5 7.1875H7.5V11.25C7.5 11.7775 7.55619 12.2913 7.65869 12.7888C6.53744 12.6688 4.6875 11.8263 4.6875 9.56253ZM25.3125 9.56253C25.3125 11.8263 23.4626 12.6688 22.3413 12.7888C22.4451 12.2925 22.5 11.7775 22.5 11.25V7.1875H25C25.1725 7.1875 25.3125 7.3275 25.3125 7.5V9.56253Z" fill="white"/>
</g>
</svg>
