<svg width="20" height="20" viewBox="0 0 20 20" fill="none" xmlns="http://www.w3.org/2000/svg">
<g id="arrow-right">
<path id="arrow-right_2" d="M18.0882 10.59L12.2557 16.4226C12.0932 16.5851 11.8798 16.6667 11.6665 16.6667C11.4532 16.6667 11.2398 16.5851 11.0773 16.4226C10.7515 16.0967 10.7515 15.57 11.0773 15.2442L15.4881 10.8334H2.49984C2.039 10.8334 1.6665 10.46 1.6665 10C1.6665 9.54003 2.039 9.1667 2.49984 9.1667H15.4881L11.0773 4.75589C10.7515 4.43006 10.7515 3.90334 11.0773 3.5775C11.4031 3.25167 11.9299 3.25167 12.2557 3.5775L18.0882 9.41002C18.1657 9.48752 18.2266 9.57913 18.2691 9.68163C18.3533 9.88496 18.3533 10.1151 18.2691 10.3184C18.2266 10.4209 18.1657 10.5125 18.0882 10.59Z" fill="white"/>
</g>
</svg>
