<svg width="20" height="20" viewBox="0 0 20 20" fill="none" xmlns="http://www.w3.org/2000/svg">
<g id="arrow-right">
<path id="arrow-right_2" d="M18.0882 10.5899L12.2557 16.4224C12.0932 16.5849 11.8798 16.6666 11.6665 16.6666C11.4532 16.6666 11.2398 16.5849 11.0773 16.4224C10.7515 16.0966 10.7515 15.5699 11.0773 15.244L15.4881 10.8332H2.49984C2.039 10.8332 1.6665 10.4599 1.6665 9.99991C1.6665 9.53991 2.039 9.16658 2.49984 9.16658H15.4881L11.0773 4.75577C10.7515 4.42993 10.7515 3.90322 11.0773 3.57738C11.4031 3.25155 11.9299 3.25155 12.2557 3.57738L18.0882 9.4099C18.1657 9.4874 18.2266 9.57901 18.2691 9.68151C18.3533 9.88484 18.3533 10.115 18.2691 10.3183C18.2266 10.4208 18.1657 10.5124 18.0882 10.5899Z" fill="white"/>
</g>
</svg>
